<svg xmlns="http://www.w3.org/2000/svg"
     viewBox="0 0 1720.67 1963.43">
    <defs>
        <style>.cls-1,.cls-3{fill:#231f20;}.cls-2{fill:#fff;}.cls-3{stroke:#fff;stroke-miterlimit:10;stroke-width:0.5px;}</style>
    </defs>
    <g id="Shield">
        <path class="cls-1"
              d="M999.11,1981.71c-108.73-40.49-284.74-122.06-445.19-285.83C305.3,1442.09,241.33,1141.24,189.5,897.48,158,749.41,125.33,522.9,146.3,241L999.5,18.29l852.94,222.59c23.69,283.61-10.35,512-43.9,662.17-51.82,232-132,590.93-439.53,859.59C1232.27,1882.1,1093.1,1946.56,999.11,1981.71Z"
              transform="translate(-139.66 -18.29)" />
        <path class="cls-2"
              d="M999.12,1970.3c-107.47-40-281.43-120.64-440-282.51C313.37,1437,250.15,1139.6,198.92,898.68c-31.12-146.36-63.42-370.23-42.7-648.85L999.5,29.7l843,220c23.42,280.31-10.23,506-43.39,654.47-51.21,229.29-130.47,584.07-434.42,849.61C1229.57,1871.85,1092,1935.55,999.12,1970.3Z"
              transform="translate(-139.66 -18.29)" />
        <path class="cls-1"
              d="M999.13,1958.89C892.93,1919.34,721,1839.67,564.29,1679.7,321.45,1431.81,259,1138,208.34,899.87,177.59,755.24,145.66,534,166.14,258.65L999.51,41.11l833.12,217.42c23.13,277-10.11,500.07-42.88,646.77-50.62,226.59-128.94,577.2-429.32,839.61C1226.87,1861.59,1090.93,1924.55,999.13,1958.89Z"
              transform="translate(-139.66 -18.29)" />
    </g>
    <g id="Dragon">
        <path class="cls-2"
              d="M1587.69,951.54c14.86-25.47,38.28-73.75,41.57-138.17,5.19-101.55-43.16-174.58-59.82-197.6a155.74,155.74,0,0,1-38.37,109.53c-1.6-4.3-10.94-28.18-37.17-39.47a69.46,69.46,0,0,0-46.29-2.72,287.43,287.43,0,0,0-62.93-97.2c-21.58-21.8-45.19-38.41-78.42-56C1238,493.76,1180.77,480.88,1134,469c-160.54-40.65-245.45-63.1-315.64-127.25a349.7,349.7,0,0,1-69.2-87.9c-1.23,26.21.05,79.72,30.8,135.23a247.41,247.41,0,0,0,47.8,61.05c8.13,2.95,20.21,7.24,34.94,12.11,62.94,20.79,89.15,24,149.26,40.69,61.52,17.14,100.21,32.25,114.53,38,40.69,16.31,64.67,29.34,87.58,46.13a327.49,327.49,0,0,1,44.48,39.3c-2.87-2-7.07-4.81-12.22-8.11a502.87,502.87,0,0,0-124.22-57.33c-64.95-20.39-94.55-24.32-171.65-44.49-124.54-32.59-173.29-55.31-190.63-63.68-63.33-30.6-93.73-56.51-115.89-82.27a288.52,288.52,0,0,1-43.31-67.74,279.32,279.32,0,0,0,.43,72.89c5.15,37.16,16.62,63.75,32.92,100.83A712.51,712.51,0,0,0,678.73,562c3.44,1.07,8.82,2.77,15.34,5,55.72,19.35,71,36.69,131.73,65.82,31.41,15.07,37.92,15.51,57.07,28.27a250.81,250.81,0,0,1,46.59,40.15c-4.18-2.52-10.36-6.12-18-10.1a344.88,344.88,0,0,0-96.18-32.82c-58.8-11.12-94.91-4.86-189.61-10.77-96.82-6-129.84-17-152.16-26.48a318.33,318.33,0,0,1-74.28-44.54c1.49,5.78,3.75,13.92,7,23.49,4.17,12.39,14.59,42.74,33.12,70.38,22.51,33.58,51.88,55.52,75,69.07q-20.64,5.38-42.35,12.42a743,743,0,0,0-145.25,65.45c2.11,0,5.15.14,8.79.34a289.55,289.55,0,0,1,93.28,20.7c40.81,16.93,71.46,29.65,78.29,56.22,2.16,8.38,2.47,20.22-20.42,63.34-20.68,38.95-34.83,55.45-63.88,98.55-22.77,33.77-40.25,59.89-58,95.9a589.36,589.36,0,0,0-27.88,66.38c3.52-3.19,8.62-7.7,14.94-12.88,14.07-11.52,44.08-35.74,85.33-52.8,35.4-14.64,54.81-22.67,80.92-18.32,38.1,6.36,61.4,34.23,65.94,39.9,8.26,10.32,12.36,19.43,33.73,89.53,5.85,19.19,10.72,35.49,14.34,47.69,8-47.83,27.59-110.75,76.17-165.29,24.78-27.81,69-77.4,110.14-64.48,35.65,11.19,47.68,62.48,49.84,72.33,11.34-18.69,38-56.75,87.2-81,20.74-10.22,87.84-43.28,150.63-9.85,53.25,28.35,67.5,85.43,70.06,95.69,13.75,55.09-7,99.63-13.06,111.55a292.57,292.57,0,0,0,85.17-60,179.3,179.3,0,0,1-30.31,125.2c28-16.12,70.42-45.77,104.08-95.33,12.77-18.8,32.83-49,40.35-93.36a208.84,208.84,0,0,0,2.84-40.91c-1.72,1.73-41.06,40.54-70.85,27.94-14.9-6.3-21.16-22.81-32.74-53.37a306.8,306.8,0,0,1-16.47-62.87c-1.15,25-13.61,43.51-28.5,46.22-14,2.53-26.46-9.47-31.31-14.13-5.42-5.2-16.08-17.32-23.81-61.73a367.93,367.93,0,0,1-5.39-64.19,298.61,298.61,0,0,0-124.5,48.14,757.2,757.2,0,0,1,71.46-66.73c46-37.69,87.08-62.21,127.85-79.84,67.14-29.05,84.07-18.06,88.46-14.69,12.14,9.32,15.52,27.22,19,45.76a149.44,149.44,0,0,1,.46,52.3c10-5.16,24.58-12.49,42.53-20.67,33.13-15.09,49.7-22.64,66.77-26.23,16.46-3.46,51.32-10.8,84.13,6.4C1576.34,891.91,1586.22,943.24,1587.69,951.54Z"
              transform="translate(-139.66 -18.29)" />
    </g>
    <g id="Feather">
        <path class="cls-1"
              d="M619.43,1151.5A49.28,49.28,0,0,1,632,1119.87q-3.49-13.45-7-26.9l-21,2.27-1.3,25.83a59.68,59.68,0,0,1,16.66,30.43Z"
              transform="translate(-139.66 -18.29)" />
        <rect class="cls-1"
              x="602.19"
              y="1077.29"
              width="23.58"
              height="9.78"
              transform="matrix(0.99, -0.11, 0.11, 0.99, -256.23, 56.73)" />
        <path class="cls-1"
              d="M724.46,651.38a799.12,799.12,0,0,0-101.2,391.89,23,23,0,0,0,13.39-7.08c3.93-4.82,10.35-12.55,18.62-21.77,21.92-24.44,31-30.53,41.6-45.85a138.48,138.48,0,0,0,18.37-38.1L682.93,969.9a183.74,183.74,0,0,0-47.76,31,67.11,67.11,0,0,1,13-16.4c5.86-5.35,9.63-6.77,19.4-14.65,0,0,4.9-4,11.12-9.72,15.83-14.68,30.22-38.56,33.15-43.42,8.69-14.37,20.48-33.42,37.13-59.18-9.56,15.22-19.85,23.62-27.69,28.53-5.74,3.59-9.62,5-24.71,12.61-10.37,5.25-18.75,9.78-24.32,12.85a417.71,417.71,0,0,0,62.17-50.08c27.73-27.14,35-42,37.45-47.42a122.62,122.62,0,0,0,10.63-52.74,179.14,179.14,0,0,1-45.95,30.48c-14.53,6.61-24.73,8.74-44.91,18.46a299.11,299.11,0,0,0-29.9,16.56,99.38,99.38,0,0,1,19.84-17.89c9.45-6.43,15.77-8.29,24.56-12.38,16.2-7.54,26.76-16.13,39.36-26.39a252.45,252.45,0,0,0,34.12-33.64c8.38-10,18.33-22,27.21-40.3a169.51,169.51,0,0,0,9.43-23.86c-3,2.39-6.23,4.8-9.63,7.2-6.11,4.32-12.06,8.07-17.72,11.33a245.73,245.73,0,0,0,19.7-21.58c4.55-5.64,8.59-11.14,12.17-16.4a137.91,137.91,0,0,1-31.13,23.09q5.16-5,10.39-10.62A242.64,242.64,0,0,0,825.78,632a113.53,113.53,0,0,0,1.79-55.75,147.34,147.34,0,0,1-58.58,40,414.34,414.34,0,0,0,34.93-26.77c17.53-15,23-22.21,25-31.5a39.22,39.22,0,0,0-.21-17.25,176.47,176.47,0,0,1-44.51,36.06,333,333,0,0,0,24.17-24.55c7-7.84,13.08-15.49,18.48-22.76a32.73,32.73,0,0,0-3.06-8.65,32.38,32.38,0,0,0-5.55-7.63c-2.67,3.92-5.69,8-9.1,12.2a180.84,180.84,0,0,1-15.57,16.84c3.67-7.56,7.74-15.38,12.26-23.39q4-7.17,8.1-13.8a12.28,12.28,0,0,0-1.06-4.57,12.56,12.56,0,0,0-4-5,24.34,24.34,0,0,0-5.38-3,25,25,0,0,0-5.65-1.55c-8.16,21.91-17.37,44.73-27.78,68.29q-12.4,28.08-25.19,53.48L735,612c9.25-15.11,18.71-32,27.87-50.68,8.59-17.49,15.77-34.23,21.81-49.87q-11.38,21.8-24.79,44.81c-11.44,19.55-23,37.84-34.41,54.88l-5.95-1.84a457.23,457.23,0,0,0,69-131.62l-23.84,41.44q.12-5.67.57-11.77c.55-7.48,1.43-14.48,2.51-21-2.12,9.11-4.67,18.71-7.77,28.72q-3.2,10.3-6.65,19.67c-.18-6.65-.19-13.67.05-21,.28-8.68.86-16.89,1.65-24.58a273.46,273.46,0,0,0-75.86,73q-26.35,43.14-52.69,86.29a128.7,128.7,0,0,0,7.23,47.67A102.25,102.25,0,0,1,619,655.62a332.09,332.09,0,0,0-24.37,52.44c-9.74,26.87-16.58,45.72-15.22,69.42.68,11.85,4.25,39.63,28.71,70.08a28.57,28.57,0,0,1-7.12-3.19c-4.65-2.91-7.68-6.74-15.08-19.66-2.06-3.59-4.62-8.18-7.47-13.57-2,6.66-4.88,16.69-7.77,29-7,30-10.49,44.92-9.18,63.75.7,10.2,4.49,23.55,12.06,50.25,4.44,15.67,8.52,28.51,11.41,37.3a106.85,106.85,0,0,1-16.49-32.05,106.65,106.65,0,0,0,18.1,50.23,108.73,108.73,0,0,1-25.15-31.86A161.4,161.4,0,0,0,595,1057.07a6.66,6.66,0,0,0,3.46-.47,6.86,6.86,0,0,0,3.21-2.9,1578.85,1578.85,0,0,1,20-203.76c7.1-42.85,13.82-71.51,25.26-103.05A493.41,493.41,0,0,1,695,649.42l7.79,1A532.33,532.33,0,0,0,652.3,756.27c-10.69,30.74-17.14,58.44-23.63,95.84-8.69,50.1-18.49,123.5-21.19,217.77l11.52-.38a861.84,861.84,0,0,1,95.29-420.07"
              transform="translate(-139.66 -18.29)" />
    </g>
    <g id="Dice">
        <polygon class="cls-3"
                 points="988.79 690.6 1016.91 645.76 1007.7 691.48 988.79 690.6" />
        <polygon class="cls-3"
                 points="1018.17 687.56 1029.89 628.49 1085.35 652.06 1018.17 687.56" />
        <polygon class="cls-3"
                 points="1051.48 627.54 1104.39 629.51 1094.4 645.57 1051.48 627.54" />
        <polygon class="cls-3"
                 points="1112.45 634.25 1102.34 650.8 1137.33 681.36 1112.45 634.25" />
        <polygon class="cls-3"
                 points="1091.31 659.34 1020.81 696.64 1088.28 738.96 1091.31 659.34" />
        <polygon class="cls-3"
                 points="1007.45 700.92 988.13 699.96 1013.02 747.1 1007.45 700.92" />
        <polygon class="cls-3"
                 points="1017.44 705.39 1081.7 745.89 1024.67 765.25 1017.44 705.39" />
        <polygon class="cls-3"
                 points="1046.27 767.77 1090.25 752.88 1099.15 769.76 1046.27 767.77" />
        <polygon class="cls-3"
                 points="1107.54 765.28 1098.61 748.35 1135.73 720.46 1107.54 765.28" />
        <polygon class="cls-3"
                 points="1100.42 661.51 1145.79 701.21 1097.72 737.4 1100.42 661.51" />
    </g>
    <g id="Flame">
        <path class="cls-2"
              d="M1294.62,963.94c45.34,25.78,77.26,25.7,98.51,20.26,26.93-6.9,31.23-21,55.27-21.73,40.56-1.24,59.31,37.95,85.48,30.06,9-2.71,20.31-11.43,29-38.88,1,3.72,9.16,36-9.75,56.11-12.84,13.64-32.57,15.66-39,16.31-23.7,2.42-34.53-7.88-42.95-.68-8,6.86-7.25,24-.29,34.52,9.06,13.74,30.33,19,50.65,10-6.7,7.88-22.58,24.25-48.29,31.66-45.86,13.21-83.78-13.42-88.94-17.17a128.76,128.76,0,0,1-36-38c-8.91-14.59-10-23.23-18.77-39.22A164.28,164.28,0,0,0,1294.62,963.94Z"
              transform="translate(-139.66 -18.29)" />
        <path class="cls-2"
              d="M1564.52,1113.51a31.33,31.33,0,0,0,8.72-.12c2.22-.35,7.71-1.46,16.19-7.54a66.77,66.77,0,0,0,18.88-19.71c6.4-10.33,8-19.25,9.54-18.92,1.14.25,1.16,5.76.31,10.61-.69,4-2.76,12.16-13,24.3-9.67,11.5-16.64,14.66-15.45,18.74,1.11,3.78,8.12,4.58,9.34,4.72,10.59,1.22,18.26-7.69,19.22-8.85a48.2,48.2,0,0,1-18.61,14.73c-5.94,2.61-12.15,5.34-19.49,3.11-10.19-3.1-14.12-13.22-14.31-13.73A22.34,22.34,0,0,1,1564.52,1113.51Z"
              transform="translate(-139.66 -18.29)" />
        <path class="cls-2"
              d="M1629.61,999.23c3.42.8,13.69,2.74,24.27-2.57a36,36,0,0,0,19-25.73c2.37-14.58-7.45-20.44-7.55-38.41a55.32,55.32,0,0,1,6.19-25.08c-15,11-19.86,21.5-21.49,29.17-3,14.2,4.23,22.45.81,36.18C1647.7,985.5,1637.62,994,1629.61,999.23Z"
              transform="translate(-139.66 -18.29)" />
        <path class="cls-2"
              d="M1561.84,1045.65c9.77-3.4,22.77-7.93,31-20.56,7.25-11.17,7.22-23.2,6.67-29.37a49.59,49.59,0,0,1,7.74,19.49c1,5.83,2.35,14.34-2.13,22.7-5.77,10.75-18.24,15.61-19.49,14.15s6.72-9,5.6-10.15c-.94-1-7.88,3-13.61,8.81-6,6.07-5.89,9.27-9.08,11.22-4.19,2.55-12.47,2-30.44-11.75A83.21,83.21,0,0,0,1561.84,1045.65Z"
              transform="translate(-139.66 -18.29)" />
    </g>
    <g id="Wing">
        <path class="cls-2"
              d="M960.06,1699.59c-23.68-13.45-36.52-12.13-48.26-27.59a54.72,54.72,0,0,1-10.48-28.67c-.3-5.27-.52-10.51,2.83-15.74,6.31-9.82,20-11.27,22.3-11.49a26.2,26.2,0,0,0-7.62-5.18,28.18,28.18,0,0,0-8.37-2.27,5.6,5.6,0,0,0-.24-2.43c-1.9-5.66-13.19-7.4-33.32-8.33-21-1-33.88-1.55-54.2.74-1.14.12-2.64.3-4.48.53-14.26,1.81-28.41,5-28.41,5a313.05,313.05,0,0,0-30.29,8.37,73.42,73.42,0,0,0,32.77,9.94,15.17,15.17,0,0,1,5.31-6.75,119.35,119.35,0,0,0,43,8.1,154.53,154.53,0,0,1-26.64.72c-5.17-.31-10-.86-14.49-1.55a15.28,15.28,0,0,0-3,3.47,15.44,15.44,0,0,0-1.83,4c-5.36-.88-11.09-2-17.11-3.63a188.4,188.4,0,0,1-28.52-10,180.16,180.16,0,0,0-28.64,15.08c-10.16,6.58-46.27,30.78-66,76.86a153.54,153.54,0,0,0-6.75,19.12A128.19,128.19,0,0,1,683.25,1704c7.24-3.25,47.64-21.31,59.72-7.18,1.87,2.19,4.59,6.94,2.76,17.43,10.08-19.14,29.73-49.27,65.18-68.53,30.36-16.49,61.15-18.94,61.25-18.56s-30.37,3.38-60.24,20.36c-31.24,17.75-50.7,44.46-63,67.29A101.66,101.66,0,0,1,782,1698.16c14.56-4.22,30.3-8.82,44.42-.84,19.55,11,21,37.69,21.16,40.57a269.42,269.42,0,0,1,18.53-24.17c13.1-15.23,24.69-25.27,24.85-25.1s-11.45,10-23.2,26A169.82,169.82,0,0,0,851.32,1742c25.43-14.81,52.22-14.86,65.89-1.51,2.87,2.81,7.07,8.07,9.16,17.33a195.57,195.57,0,0,0,21.1-11.39,188.66,188.66,0,0,0,16.16-11.23l30.45-9.35A156.55,156.55,0,0,0,960.06,1699.59Z"
              transform="translate(-139.66 -18.29)" />
        <path class="cls-2"
              d="M1045.18,1698.16c23.68-13.45,36.52-12.13,48.26-27.58a54.81,54.81,0,0,0,10.48-28.68c.3-5.27.52-10.51-2.83-15.74-6.31-9.82-19.95-11.27-22.3-11.49a26.2,26.2,0,0,1,7.62-5.18,28.18,28.18,0,0,1,8.37-2.27,5.6,5.6,0,0,1,.24-2.43c1.9-5.65,13.19-7.4,33.32-8.33,21-1,33.88-1.55,54.2.74,1.13.12,2.64.3,4.48.53,14.26,1.81,28.41,5,28.41,5a313.05,313.05,0,0,1,30.29,8.37A73.42,73.42,0,0,1,1213,1621a15.17,15.17,0,0,0-5.31-6.75,117.91,117.91,0,0,1-17,5.18,119.76,119.76,0,0,1-26.06,2.93,155.62,155.62,0,0,0,26.64.71c5.17-.31,10-.86,14.49-1.55a15.28,15.28,0,0,1,3,3.47,15.44,15.44,0,0,1,1.83,4c5.36-.88,11.09-2,17.11-3.63a188.4,188.4,0,0,0,28.52-10,180.16,180.16,0,0,1,28.64,15.08c10.15,6.58,46.26,30.78,66,76.86a153.54,153.54,0,0,1,6.75,19.12A128.19,128.19,0,0,0,1322,1702.6c-7.24-3.25-47.64-21.31-59.72-7.18-1.87,2.19-4.59,6.94-2.76,17.43-10.08-19.14-29.73-49.27-65.18-68.53-30.36-16.49-61.15-18.94-61.25-18.56s30.37,3.38,60.24,20.36c31.24,17.75,50.7,44.46,63,67.29a101.66,101.66,0,0,0-33-16.68c-14.56-4.22-30.3-8.82-44.42-.84-19.55,11-21,37.69-21.16,40.57a269.42,269.42,0,0,0-18.53-24.17c-13.1-15.23-24.69-25.27-24.85-25.1s11.45,10,23.2,26a169.82,169.82,0,0,1,16.39,27.37c-25.43-14.81-52.22-14.86-65.89-1.51-2.87,2.81-7.07,8.07-9.16,17.33a195.57,195.57,0,0,1-21.1-11.39,188.66,188.66,0,0,1-16.16-11.23l-30.45-9.35A156.55,156.55,0,0,1,1045.18,1698.16Z"
              transform="translate(-139.66 -18.29)" />
    </g>
</svg>